<svg xmlns="http://www.w3.org/2000/svg" viewBox="0 0 64 64" role="img" aria-labelledby="title desc">
  <title>Girasol Hermosa</title>
  <desc>Favicon inspirado en un girasol dorado sobre fondo vino.</desc>
  <defs>
    <linearGradient id="bg" x1="0" y1="0" x2="1" y2="1">
      <stop offset="0%" stop-color="#3a1f22" />
      <stop offset="100%" stop-color="#1a1012" />
    </linearGradient>
    <linearGradient id="petal" x1="0" y1="0" x2="0" y2="1">
      <stop offset="0%" stop-color="#f7ddb2" />
      <stop offset="100%" stop-color="#e0ad63" />
    </linearGradient>
  </defs>

  <rect x="4" y="4" width="56" height="56" rx="16" fill="url(#bg)" />
  <rect x="6.5" y="6.5" width="51" height="51" rx="13.5" fill="none" stroke="#f0c27b" stroke-opacity="0.6" stroke-width="1.8" />

  <g transform="translate(32 32)">
    <ellipse rx="5.4" ry="13" fill="url(#petal)" transform="rotate(0) translate(0 -15.2)" />
    <ellipse rx="5.4" ry="13" fill="url(#petal)" transform="rotate(45) translate(0 -15.2)" />
    <ellipse rx="5.4" ry="13" fill="url(#petal)" transform="rotate(90) translate(0 -15.2)" />
    <ellipse rx="5.4" ry="13" fill="url(#petal)" transform="rotate(135) translate(0 -15.2)" />
    <ellipse rx="5.4" ry="13" fill="url(#petal)" transform="rotate(180) translate(0 -15.2)" />
    <ellipse rx="5.4" ry="13" fill="url(#petal)" transform="rotate(225) translate(0 -15.2)" />
    <ellipse rx="5.4" ry="13" fill="url(#petal)" transform="rotate(270) translate(0 -15.2)" />
    <ellipse rx="5.4" ry="13" fill="url(#petal)" transform="rotate(315) translate(0 -15.2)" />

    <circle r="12.5" fill="#f7eddc" />
    <path d="M2.8-6.2c-3.9 0-7 2.9-7 6.8 0 4.6 3.9 7.7 8.3 7.7 2 0 4.3-.7 5.8-1.9V2.9H5.6v-3H13v8.4c-2.1 1.8-5.5 3-9 3-6.3 0-11.6-4.2-11.6-10.7 0-5.8 4.6-10 10.6-10 2.8 0 5.4.9 7.4 2.7L8.2-4.5C6.8-5.7 5-6.2 2.8-6.2z" fill="#6a1014" />
  </g>
</svg>